# Blender v2.79 (sub 0) OBJ File: 'Bone.blend'
# www.blender.org
mtllib Bone.mtl
o Bone_Cube.004
v -0.050000 1.000000 0.000000
v 0.000000 1.000000 -0.050000
v 0.050000 1.000000 0.000000
v 0.000000 1.000000 0.050000
v 0.000000 0.950000 0.000000
v 0.000000 1.050000 0.000000
v -0.037500 0.962500 0.000000
v -0.037500 1.000000 0.037500
v -0.037500 1.037500 0.000000
v -0.037500 1.000000 -0.037500
v 0.000000 0.962500 -0.037500
v 0.000000 1.037500 -0.037500
v 0.037500 1.000000 -0.037500
v 0.037500 0.962500 0.000000
v 0.037500 1.037500 0.000000
v 0.037500 1.000000 0.037500
v 0.000000 0.962500 0.037500
v 0.000000 1.037500 0.037500
v -0.027778 0.972222 0.027778
v -0.027778 1.027778 0.027778
v -0.027778 0.972222 -0.027778
v -0.027778 1.027778 -0.027778
v 0.027778 0.972222 0.027778
v 0.027778 1.027778 0.027778
v 0.027778 0.972222 -0.027778
v 0.027778 1.027778 -0.027778
v -0.050000 0.000000 0.000000
v 0.000000 0.000000 -0.050000
v 0.050000 0.000000 0.000000
v 0.000000 0.000000 0.050000
v 0.000000 -0.050000 0.000000
v 0.000000 0.050000 0.000000
v -0.037500 -0.037500 0.000000
v -0.037500 0.000000 0.037500
v -0.037500 0.037500 0.000000
v -0.037500 0.000000 -0.037500
v 0.000000 -0.037500 -0.037500
v 0.000000 0.037500 -0.037500
v 0.037500 0.000000 -0.037500
v 0.037500 -0.037500 0.000000
v 0.037500 0.037500 0.000000
v 0.037500 0.000000 0.037500
v 0.000000 -0.037500 0.037500
v 0.000000 0.037500 0.037500
v -0.027778 -0.027778 0.027778
v -0.027778 0.027778 0.027778
v -0.027778 -0.027778 -0.027778
v -0.027778 0.027778 -0.027778
v 0.027778 -0.027778 0.027778
v 0.027778 0.027778 0.027778
v 0.027778 -0.027778 -0.027778
v 0.027778 0.027778 -0.027778
v 0.100000 0.100000 -0.100000
v -0.100000 0.100000 -0.100000
v 0.100000 0.100000 0.100000
v -0.100000 0.100000 0.100000
v 0.100000 0.100000 0.000000
v 0.000000 1.000000 0.000000
v 0.000000 0.000000 0.000000
v -0.100000 0.100000 0.000000
vt 0.000000 0.000000
vt 1.000000 0.000000
vt 1.000000 1.000000
vt 0.000000 1.000000
vt 1.000000 0.000000
vt 1.000000 1.000000
vt 0.000000 1.000000
vt 1.000000 0.000000
vt 1.000000 1.000000
vt 0.000000 1.000000
vt 1.000000 0.000000
vt 1.000000 1.000000
vt 0.000000 1.000000
vt 0.000000 0.000000
vt 1.000000 0.000000
vt 0.000000 1.000000
vt 1.000000 0.000000
vt 1.000000 1.000000
vt 0.000000 1.000000
vt 1.000000 0.000000
vt 1.000000 1.000000
vt 0.000000 1.000000
vt 0.000000 0.000000
vt 1.000000 0.000000
vt 0.000000 1.000000
vt 1.000000 0.000000
vt 1.000000 1.000000
vt 0.000000 1.000000
vt 1.000000 0.000000
vt 1.000000 1.000000
vt 0.000000 1.000000
vt 0.000000 0.000000
vt 1.000000 0.000000
vt 0.000000 1.000000
vt 1.000000 0.000000
vt 0.000000 1.000000
vt 0.000000 0.000000
vt 0.000000 0.000000
vt 0.000000 0.000000
vt 1.000000 0.000000
vt 1.000000 1.000000
vt 0.000000 1.000000
vt 1.000000 0.000000
vt 1.000000 1.000000
vt 0.000000 1.000000
vt 1.000000 0.000000
vt 1.000000 1.000000
vt 0.000000 1.000000
vt 1.000000 0.000000
vt 1.000000 1.000000
vt 0.000000 1.000000
vt 0.000000 0.000000
vt 1.000000 0.000000
vt 0.000000 1.000000
vt 1.000000 0.000000
vt 1.000000 1.000000
vt 0.000000 1.000000
vt 1.000000 0.000000
vt 1.000000 1.000000
vt 0.000000 1.000000
vt 0.000000 0.000000
vt 1.000000 0.000000
vt 0.000000 1.000000
vt 1.000000 0.000000
vt 1.000000 1.000000
vt 0.000000 1.000000
vt 1.000000 0.000000
vt 1.000000 1.000000
vt 0.000000 1.000000
vt 0.000000 0.000000
vt 1.000000 0.000000
vt 0.000000 1.000000
vt 1.000000 0.000000
vt 0.000000 1.000000
vt 0.000000 0.000000
vt 0.000000 0.000000
vt 0.000000 0.000000
vt 1.000000 0.000000
vt 1.000000 1.000000
vt 0.000000 0.000000
vt 1.000000 0.000000
vt 1.000000 1.000000
vt 1.000000 0.000000
vt 1.000000 1.000000
vt 1.000000 0.000000
vt 0.000000 0.000000
vt 1.000000 0.000000
vt 0.000000 0.000000
vt 1.000000 1.000000
vt 0.000000 0.000000
vt 1.000000 0.000000
vt 1.000000 1.000000
vt 1.000000 1.000000
vn -0.8704 -0.3482 0.3482
vn -0.8704 0.3482 0.3482
vn -0.8704 0.3482 -0.3482
vn -0.8704 -0.3482 -0.3482
vn -0.3482 -0.3482 -0.8704
vn -0.3482 0.3482 -0.8704
vn 0.3482 0.3482 -0.8704
vn 0.3482 -0.3482 -0.8704
vn 0.8704 -0.3482 -0.3482
vn 0.8704 0.3482 -0.3482
vn 0.8704 0.3482 0.3482
vn 0.8704 -0.3482 0.3482
vn 0.3482 -0.3482 0.8704
vn 0.3482 0.3482 0.8704
vn -0.3482 0.3482 0.8704
vn -0.3482 -0.3482 0.8704
vn -0.3482 -0.8704 -0.3482
vn 0.3482 -0.8704 -0.3482
vn 0.3482 -0.8704 0.3482
vn -0.3482 -0.8704 0.3482
vn 0.3482 0.8704 -0.3482
vn -0.3482 0.8704 -0.3482
vn -0.3482 0.8704 0.3482
vn 0.3482 0.8704 0.3482
vn -0.9939 0.1104 0.0000
vn 0.9939 0.1104 0.0000
vn 0.7071 -0.7071 0.0000
vn 0.0000 -0.7071 -0.7071
vn -0.7071 -0.7071 0.0000
vn 0.0000 0.1104 -0.9939
vn 0.0000 -0.7071 0.7071
vn 0.0000 0.1104 0.9939
usemtl None
s off
f 1/1/1 7/2/1 19/3/1 8/4/1
f 1/1/2 8/5/2 20/6/2 9/7/2
f 1/1/3 9/8/3 22/9/3 10/10/3
f 1/1/4 10/11/4 21/12/4 7/13/4
f 2/14/5 11/15/5 21/12/5 10/10/5
f 2/14/6 10/11/6 22/9/6 12/16/6
f 2/14/7 12/17/7 26/18/7 13/19/7
f 2/14/8 13/20/8 25/21/8 11/22/8
f 3/23/9 14/24/9 25/21/9 13/19/9
f 3/23/10 13/20/10 26/18/10 15/25/10
f 3/23/11 15/26/11 24/27/11 16/28/11
f 3/23/12 16/29/12 23/30/12 14/31/12
f 4/32/13 17/33/13 23/30/13 16/28/13
f 4/32/14 16/29/14 24/27/14 18/34/14
f 4/32/15 18/35/15 20/6/15 8/4/15
f 4/32/16 8/5/16 19/3/16 17/36/16
f 5/37/17 7/2/17 21/12/17 11/22/17
f 5/37/18 11/15/18 25/21/18 14/31/18
f 5/37/19 14/24/19 23/30/19 17/36/19
f 5/37/20 17/33/20 19/3/20 7/13/20
f 6/38/21 15/26/21 26/18/21 12/16/21
f 6/38/22 12/17/22 22/9/22 9/7/22
f 6/38/23 9/8/23 20/6/23 18/34/23
f 6/38/24 18/35/24 24/27/24 15/25/24
f 27/39/1 33/40/1 45/41/1 34/42/1
f 27/39/2 34/43/2 46/44/2 35/45/2
f 27/39/3 35/46/3 48/47/3 36/48/3
f 27/39/4 36/49/4 47/50/4 33/51/4
f 28/52/5 37/53/5 47/50/5 36/48/5
f 28/52/6 36/49/6 48/47/6 38/54/6
f 28/52/7 38/55/7 52/56/7 39/57/7
f 28/52/8 39/58/8 51/59/8 37/60/8
f 29/61/9 40/62/9 51/59/9 39/57/9
f 29/61/10 39/58/10 52/56/10 41/63/10
f 29/61/11 41/64/11 50/65/11 42/66/11
f 29/61/12 42/67/12 49/68/12 40/69/12
f 30/70/13 43/71/13 49/68/13 42/66/13
f 30/70/14 42/67/14 50/65/14 44/72/14
f 30/70/15 44/73/15 46/44/15 34/42/15
f 30/70/16 34/43/16 45/41/16 43/74/16
f 31/75/17 33/40/17 47/50/17 37/60/17
f 31/75/18 37/53/18 51/59/18 40/69/18
f 31/75/19 40/62/19 49/68/19 43/74/19
f 31/75/20 43/71/20 45/41/20 33/51/20
f 32/76/21 41/64/21 52/56/21 38/54/21
f 32/76/22 38/55/22 48/47/22 35/45/22
f 32/76/23 35/46/23 46/44/23 44/72/23
f 32/76/24 44/73/24 50/65/24 41/63/24
f 54/77/25 60/78/25 58/79/25
f 53/80/26 58/81/26 57/82/26
f 53/80/27 57/83/27 59/84/27
f 54/77/28 53/85/28 59/84/28
f 60/86/29 54/87/29 59/84/29
f 53/80/30 54/87/30 58/79/30
f 56/88/25 58/81/25 60/89/25
f 55/90/26 57/83/26 58/79/26
f 55/90/27 59/91/27 57/82/27
f 56/88/31 59/91/31 55/92/31
f 60/86/29 59/91/29 56/93/29
f 55/90/32 58/81/32 56/93/32
